<svg xmlns="http://www.w3.org/2000/svg" width="158" height="104" fill="none"><path fill="#fff" d="M157.326 64.384v-6.92c0-1.715-1.352-2.986-3.023-2.835l-14.686 1.299c-9.649.855-17.474 9.585-17.474 19.5s7.825 17.264 17.474 16.409l14.686-1.299c1.671-.146 3.023-1.656 3.023-3.37v-6.92c0-1.715-2.237-2.908-3.903-2.757l-3.313.292c1.325-.119 2.396-1.317 2.396-2.675V70.32c0-1.176-.803-2.086-1.879-2.237l2.791-.246c1.671-.147 3.904-1.734 3.904-3.449l.004-.004ZM60.605 62.797c-9.65.855-17.473 9.585-17.473 19.5v15.096c0 1.715 1.352 2.987 3.022 2.836l6.73-.595c1.671-.146 3.023-1.655 3.023-3.37v-1.528c0-1.166.917-2.19 2.052-2.291l5.292-.466c1.134-.101 2.051.763 2.051 1.925v1.527c0 1.715 1.353 2.987 3.023 2.836l6.73-.595c1.67-.146 3.023-1.655 3.023-3.37V79.205c0-9.914-7.824-17.263-17.473-16.408ZM64.03 81.09c0 .763-.603 1.436-1.347 1.504l-4.158.366c-.744.064-1.348-.498-1.348-1.267v-1.628c0-1.943 1.534-3.654 3.427-3.823 1.893-.17 3.426 1.271 3.426 3.22v1.628ZM100.617 59.38l-14.279 1.263c-1.892.169-3.417 1.884-3.408 3.828l.19 28.893c.014 1.926 1.535 3.343 3.409 3.174l13.829-1.226c9.604-.85 17.605-9.407 17.732-19.285.127-10.038-7.743-17.51-17.469-16.646h-.004Zm-.354 21.536-1.598.142c-.749.068-1.357-.503-1.357-1.276v-4.308c0-.769.608-1.45 1.357-1.514l1.598-.142c1.906-.169 3.454 1.285 3.454 3.243 0 1.957-1.548 3.686-3.454 3.855ZM28.336 65.683c-3.65.045-6.935 1.984-9 4.852-2.07-2.502-5.356-3.86-9-3.257-5.51.906-9.667 6.202-9.667 11.877v21.997c0 1.715 1.352 2.987 3.022 2.836l7.93-.7c1.67-.146 3.022-1.655 3.022-3.37v-5.145c0 1.358 1.071 2.369 2.396 2.25l4.661-.412c1.144-.1 2.097-1.01 2.338-2.136v4.615c0 1.715 1.352 2.986 3.022 2.835l7.93-.699c1.67-.147 3.022-1.656 3.022-3.37V75.857c0-5.675-4.157-10.235-9.667-10.166l-.01-.01ZM36.564 41.572l-6.976.618c-4.584.407-8.296 4.55-8.296 9.26 0 4.711 3.712 8.2 8.296 7.793l6.976-.617c.794-.069 1.434-.787 1.434-1.6v-3.284c0-.814-1.062-1.381-1.856-1.308l-1.575.137c.631-.055 1.14-.627 1.14-1.271v-2.273c0-.558-.382-.993-.89-1.061l1.325-.12c.794-.068 1.856-.822 1.856-1.636v-3.284c0-.814-.64-1.418-1.434-1.349v-.005ZM17.348 49.713c-.295-3.65-3.409-6.142-6.999-5.822l-7.738.686C1.2 44.7.67 45.295.67 45.967V60.52c0 .71.558 1.235 1.248 1.171l4.134-.366c.69-.06 1.249-.686 1.249-1.395v-.928c0-.42.33-.796.744-.832l2.024-.179a.675.675 0 0 1 .658.348l.98 1.802c.218.398.64.622 1.103.58l3.318-.292c.944-.082 1.543-1.166 1.103-1.985l-1.43-2.63c-.168-.31-.131-.704.091-1.015 1.04-1.436 1.611-3.224 1.461-5.09l-.004.005Zm-8.033 3.535-.75.064a.582.582 0 0 1-.635-.6v-2.02c0-.362.286-.682.636-.71l.749-.063c.894-.078 1.62.603 1.62 1.522 0 .92-.726 1.73-1.62 1.807Z"/><path fill="#F66B58" d="m54.274 57.121 33.267-2.945c1.42-.123 2.673-1.22 3.01-2.666.68-2.94 2.55-5.652 5.269-7.262 5.537-3.284 12.149-.933 13.965 4.966 0 .01.004.019.009.028.513 1.692 2.01 2.79 3.78 2.63l31.729-2.809c1.698-.15 2.669-2.2 1.689-3.54a36.887 36.887 0 0 0-5.342-5.867c-1.026-.91-1.121-2.552-.241-3.768l4.434-6.151c.994-1.377.718-3.238-.603-4.047-4.307-2.648-8.996-4.327-13.834-5.095-1.384-.22-2.305-1.482-2.096-2.95l1.043-7.39c.232-1.646-.925-3.032-2.519-3.018-5.201.05-10.284 1.097-15.049 2.968-1.366.535-2.819-.028-3.341-1.345l-2.646-6.622c-.59-1.472-2.314-2.017-3.758-1.18A47.412 47.412 0 0 0 90.8 11.293c-.98 1.148-2.573 1.436-3.69.627l-5.628-4.08c-1.252-.91-3.086-.462-3.99.974-2.945 4.688-4.987 9.686-6.144 14.758-.332 1.454-1.643 2.515-3.05 2.424l-7.099-.444c-1.579-.1-3.031 1.217-3.154 2.868-.4 5.383.182 10.555 1.593 15.33.404 1.367-.268 2.917-1.593 3.575l-6.667 3.307c-1.493.74-2.17 2.58-1.47 4.006l.027.055c.803 1.646 2.496 2.589 4.348 2.424l-.01.004Z"/></svg>