<?xml version="1.0" encoding="utf-8"?>
<!-- Generator: Adobe Illustrator 27.9.2, SVG Export Plug-In . SVG Version: 6.00 Build 0)  -->
<svg version="1.1" id="Layer_1" xmlns="http://www.w3.org/2000/svg" xmlns:xlink="http://www.w3.org/1999/xlink" x="0px" y="0px"
	 viewBox="0 0 232 176" style="enable-background:new 0 0 232 176;" xml:space="preserve">
<style type="text/css">
	.st0{fill:#14171F;}
	.st1{clip-path:url(#SVGID_00000157278436861949739690000015216389906607576732_);}
	.st2{fill:#FFFFFF;}
	.st3{fill:#F26B58;}
</style>
<rect class="st0" width="232" height="176"/>
<g>
	<defs>
		<rect id="SVGID_1_" x="45.4" y="41.3" width="141.3" height="93.4"/>
	</defs>
	<clipPath id="SVGID_00000111182113409094186480000013071571375168644799_">
		<use xlink:href="#SVGID_1_"  style="overflow:visible;"/>
	</clipPath>
	<g style="clip-path:url(#SVGID_00000111182113409094186480000013071571375168644799_);">
		<path class="st2" d="M186.6,99v-6.2c0-1.5-1.2-2.7-2.7-2.5c0,0-10.6,0.9-13.2,1.2c-8.7,0.8-15.8,8.6-15.8,17.4s7.1,15.4,15.8,14.7
			l13.2-1.2c1.5-0.1,2.7-1.5,2.7-3v-6.2c0-1.5-2-2.6-3.5-2.5l-3,0.3c1.2-0.1,2.2-1.2,2.2-2.4v-4.3c0-1.1-0.7-1.9-1.7-2l2.5-0.2
			C184.6,101.9,186.6,100.5,186.6,99L186.6,99z"/>
		<path class="st2" d="M99.4,97.6c-8.7,0.8-15.8,8.6-15.8,17.4v13.5c0,1.5,1.2,2.7,2.7,2.5l6.1-0.5c1.5-0.1,2.7-1.5,2.7-3v-1.4
			c0-1,0.8-2,1.8-2l4.8-0.4c1-0.1,1.8,0.7,1.8,1.7v1.4c0,1.5,1.2,2.7,2.7,2.5l6.1-0.5c1.5-0.1,2.7-1.5,2.7-3v-13.5
			C115.2,103.4,108.1,96.8,99.4,97.6z M102.5,113.9c0,0.7-0.5,1.3-1.2,1.3l-3.7,0.3c-0.7,0.1-1.2-0.4-1.2-1.1V113
			c0-1.7,1.4-3.3,3.1-3.4c1.7-0.2,3.1,1.1,3.1,2.9V113.9z"/>
		<path class="st2" d="M135.5,94.5l-12.9,1.1c-1.7,0.2-3.1,1.7-3.1,3.4l0.2,25.9c0,1.7,1.4,3,3.1,2.8l12.5-1.1
			c8.7-0.8,15.9-8.4,16-17.3C151.4,100.4,144.3,93.7,135.5,94.5L135.5,94.5z M135.2,113.8l-1.4,0.1c-0.7,0.1-1.2-0.5-1.2-1.1v-3.9
			c0-0.7,0.5-1.3,1.2-1.4l1.4-0.1c1.7-0.2,3.1,1.1,3.1,2.9C138.3,112.1,136.9,113.6,135.2,113.8z"/>
		<path class="st2" d="M70.3,100.1c-3.3,0-6.3,1.8-8.1,4.3c-1.9-2.2-4.8-3.5-8.1-2.9c-5,0.8-8.7,5.5-8.7,10.6v19.7
			c0,1.5,1.2,2.7,2.7,2.5l7.1-0.6c1.5-0.1,2.7-1.5,2.7-3v-4.6c0,1.2,1,2.1,2.2,2l4.2-0.4c1-0.1,1.9-0.9,2.1-1.9v4.1
			c0,1.5,1.2,2.7,2.7,2.5l7.1-0.6c1.5-0.1,2.7-1.5,2.7-3v-19.7C79,104.2,75.3,100.1,70.3,100.1L70.3,100.1z"/>
		<path class="st2" d="M77.7,78.6c0,0-5,0.4-6.3,0.6c-4.1,0.4-7.5,4.1-7.5,8.3c0,4.2,3.3,7.3,7.5,7c2-0.2,6.3-0.6,6.3-0.6
			c0.7-0.1,1.3-0.7,1.3-1.4v-2.9c0-0.7-1-1.2-1.7-1.2l-1.4,0.1c0.6,0,1-0.6,1-1.1v-2c0-0.5-0.3-0.9-0.8-0.9l1.2-0.1
			c0.7-0.1,1.7-0.7,1.7-1.5v-2.9C79,79.1,78.5,78.5,77.7,78.6L77.7,78.6z"/>
		<path class="st2" d="M60.4,85.9c-0.3-3.3-3.1-5.5-6.3-5.2l-7,0.6c-1.3,0.1-1.8,0.6-1.8,1.2v13c0,0.6,0.5,1.1,1.1,1l3.7-0.3
			c0.6-0.1,1.1-0.6,1.1-1.2v-0.8c0-0.4,0.3-0.7,0.7-0.7l1.8-0.2c0.2,0,0.5,0.1,0.6,0.3l0.9,1.6c0.2,0.4,0.6,0.6,1,0.5l3-0.3
			c0.9-0.1,1.4-1,1-1.8L59,91.3c-0.2-0.3-0.1-0.6,0.1-0.9C60,89.1,60.6,87.5,60.4,85.9L60.4,85.9z M53.2,89l-0.7,0.1
			c-0.3,0-0.6-0.2-0.6-0.5v-1.8c0-0.3,0.3-0.6,0.6-0.6l0.7-0.1c0.8-0.1,1.5,0.5,1.5,1.4C54.6,88.2,54,88.9,53.2,89z"/>
		<path class="st3" d="M93.7,92.5l30-2.6c1.3-0.1,2.4-1.1,2.7-2.4c0.6-2.6,2.3-5.1,4.8-6.5c5-2.9,11-0.8,12.6,4.4c0,0,0,0,0,0
			c0.5,1.5,1.8,2.5,3.4,2.4l28.6-2.5c1.5-0.1,2.4-2,1.5-3.2c-1.4-1.9-3-3.7-4.8-5.3c-0.9-0.8-1-2.3-0.2-3.4l4-5.5
			c0.9-1.2,0.6-2.9-0.5-3.6c-3.9-2.4-8.1-3.9-12.5-4.6c-1.2-0.2-2.1-1.3-1.9-2.6l0.9-6.6c0.2-1.5-0.8-2.7-2.3-2.7
			c-4.7,0-9.3,1-13.6,2.7c-1.2,0.5-2.5,0-3-1.2l-2.4-5.9c-0.5-1.3-2.1-1.8-3.4-1.1c-4.2,2.4-8,5.6-11,9.2c-0.9,1-2.3,1.3-3.3,0.6
			l-5.1-3.7c-1.1-0.8-2.8-0.4-3.6,0.9c-2.7,4.2-4.5,8.7-5.5,13.2c-0.3,1.3-1.5,2.3-2.8,2.2l-6.4-0.4c-1.4-0.1-2.7,1.1-2.8,2.6
			c-0.4,4.8,0.2,9.4,1.4,13.7c0.4,1.2-0.2,2.6-1.4,3.2l-6,3c-1.3,0.7-2,2.3-1.3,3.6l0,0C90.5,91.8,92,92.6,93.7,92.5L93.7,92.5z"/>
	</g>
</g>
</svg>
